<svg xmlns="http://www.w3.org/2000/svg" width="1567" height="142" viewBox="0 0 1567 142"><defs><filter id="a" width="200%" height="200%" x="-50%" y="-50%"><feMorphology in="SourceGraphic" operator="dilate" result="SvgjsFeMorphology1059Out"/><feOffset in="SvgjsFeMorphology1059Out" result="SvgjsFeOffset1060Out"/><feGaussianBlur in="SvgjsFeOffset1060Out" result="SvgjsFeGaussianBlur1061Out" stdDeviation="34.5"/><feComposite in="SvgjsFeGaussianBlur1061Out" in2="SourceAlpha" operator="out" result="SvgjsFeComposite1062Out"/></filter><filter id="b" width="200%" height="200%" x="-50%" y="-50%"><feMorphology in="SourceGraphic" operator="dilate" result="SvgjsFeMorphology1066Out"/><feOffset in="SvgjsFeMorphology1066Out" result="SvgjsFeOffset1067Out"/><feGaussianBlur in="SvgjsFeOffset1067Out" result="SvgjsFeGaussianBlur1068Out" stdDeviation="34.5"/><feComposite in="SvgjsFeGaussianBlur1068Out" in2="SourceAlpha" operator="out" result="SvgjsFeComposite1069Out"/></filter><filter id="c" width="200%" height="200%" x="-50%" y="-50%"><feMorphology in="SourceGraphic" operator="dilate" result="SvgjsFeMorphology1073Out"/><feOffset in="SvgjsFeMorphology1073Out" result="SvgjsFeOffset1074Out"/><feGaussianBlur in="SvgjsFeOffset1074Out" result="SvgjsFeGaussianBlur1075Out" stdDeviation="34.5"/><feComposite in="SvgjsFeGaussianBlur1075Out" in2="SourceAlpha" operator="out" result="SvgjsFeComposite1076Out"/></filter><filter id="d" width="200%" height="200%" x="-50%" y="-50%"><feMorphology in="SourceGraphic" operator="dilate" result="SvgjsFeMorphology1080Out"/><feOffset in="SvgjsFeMorphology1080Out" result="SvgjsFeOffset1081Out"/><feGaussianBlur in="SvgjsFeOffset1081Out" result="SvgjsFeGaussianBlur1082Out" stdDeviation="29"/><feComposite in="SvgjsFeGaussianBlur1082Out" in2="SourceAlpha" operator="out" result="SvgjsFeComposite1083Out"/></filter></defs><path fill="#42a5f5" d="M0 899v-4h360v4z" filter="url(#a)" transform="translate(69 -826)"/><path fill="#42a5f5" d="M69 73v-4h360v4z"/><path fill="#ff7043" d="M360 899v-4h360v4z" filter="url(#b)" transform="translate(69 -826)"/><path fill="#ff7043" d="M429 73v-4h360v4z"/><path fill="#ffca28" d="M720 899v-4h360v4z" filter="url(#c)" transform="translate(69 -826)"/><path fill="#ffca28" d="M789 73v-4h360v4z"/><path fill="#1465c0" d="M1080 899v-4h360v4z" filter="url(#d)" transform="translate(69 -826)"/><path fill="#1465c0" d="M1149 73v-4h360v4z"/></svg>