<svg xmlns="http://www.w3.org/2000/svg" width="21" height="20" viewBox="0 0 21 20"><path fill="#0b5fbd" d="M20.99 15.78a.98.98 0 0 1-.3.85l-2.81 2.8a2.08 2.08 0 0 1-1.23.56l-.28.01a9.83 9.83 0 0 1-3.5-.82c-.87-.36-1.85-.9-2.95-1.62A22.29 22.29 0 0 1 6.4 14.6c-.99-.98-1.8-1.91-2.45-2.8a20.16 20.16 0 0 1-1.57-2.47 13 13 0 0 1-1.29-3.64A5.8 5.8 0 0 1 1 4.64l.02-.42a2.18 2.18 0 0 1 .56-1.11L4.39.3c.2-.2.42-.3.68-.3a.8.8 0 0 1 .49.16c.14.1.26.24.36.39l2.26 4.3c.13.23.16.47.11.74-.06.27-.18.5-.36.68L6.89 7.31a.3.3 0 0 0-.07.14.34.34 0 0 0-.04.16c.06.29.19.63.38 1.01.17.34.44.75.79 1.24.35.49.85 1.05 1.5 1.69a13.8 13.8 0 0 0 2.93 2.31c.34.17.59.27.77.3l.26.06.14-.04a.37.37 0 0 0 .14-.07l1.2-1.23c.26-.22.55-.34.89-.34.24 0 .43.04.57.13h.02l4.09 2.41c.3.19.47.42.53.7z"/></svg>