<svg xmlns="http://www.w3.org/2000/svg" width="363" height="140" viewBox="0 0 363 140"><defs><filter id="a" width="200%" height="200%" x="-50%" y="-50%"><feMorphology in="SourceGraphic" operator="dilate" result="SvgjsFeMorphology1068Out"/><feOffset in="SvgjsFeMorphology1068Out" result="SvgjsFeOffset1069Out"/><feGaussianBlur in="SvgjsFeOffset1069Out" result="SvgjsFeGaussianBlur1070Out" stdDeviation="34.5"/><feComposite in="SvgjsFeGaussianBlur1070Out" in2="SourceAlpha" operator="out" result="SvgjsFeComposite1071Out"/></filter><filter id="b" width="200%" height="200%" x="-50%" y="-50%"><feMorphology in="SourceGraphic" operator="dilate" result="SvgjsFeMorphology1075Out"/><feOffset in="SvgjsFeMorphology1075Out" result="SvgjsFeOffset1076Out"/><feGaussianBlur in="SvgjsFeOffset1076Out" result="SvgjsFeGaussianBlur1077Out" stdDeviation="34.5"/><feComposite in="SvgjsFeGaussianBlur1077Out" in2="SourceAlpha" operator="out" result="SvgjsFeComposite1078Out"/></filter><filter id="c" width="200%" height="200%" x="-50%" y="-50%"><feMorphology in="SourceGraphic" operator="dilate" result="SvgjsFeMorphology1082Out"/><feOffset in="SvgjsFeMorphology1082Out" result="SvgjsFeOffset1083Out"/><feGaussianBlur in="SvgjsFeOffset1083Out" result="SvgjsFeGaussianBlur1084Out" stdDeviation="34.5"/><feComposite in="SvgjsFeGaussianBlur1084Out" in2="SourceAlpha" operator="out" result="SvgjsFeComposite1085Out"/></filter><filter id="d" width="200%" height="200%" x="-50%" y="-50%"><feMorphology in="SourceGraphic" operator="dilate" result="SvgjsFeMorphology1089Out"/><feOffset in="SvgjsFeMorphology1089Out" result="SvgjsFeOffset1090Out"/><feGaussianBlur in="SvgjsFeOffset1090Out" result="SvgjsFeGaussianBlur1091Out" stdDeviation="29"/><feComposite in="SvgjsFeGaussianBlur1091Out" in2="SourceAlpha" operator="out" result="SvgjsFeComposite1092Out"/></filter></defs><path fill="#42a5f5" d="M602 4348v-2h59v2z" filter="url(#a)" transform="translate(-533 -4277)"/><path fill="#42a5f5" d="M69 71v-2h59v2z"/><path fill="#ff7043" d="M661 4348v-2h59v2z" filter="url(#b)" transform="translate(-533 -4277)"/><path fill="#ff7043" d="M128 71v-2h59v2z"/><path fill="#ffca28" d="M720 4348v-2h59v2z" filter="url(#c)" transform="translate(-533 -4277)"/><path fill="#ffca28" d="M187 71v-2h59v2z"/><path fill="#1465c0" d="M779 4348v-2h59v2z" filter="url(#d)" transform="translate(-533 -4277)"/><path fill="#1465c0" d="M246 71v-2h59v2z"/></svg>