<svg xmlns="http://www.w3.org/2000/svg" width="363" height="140" viewBox="0 0 363 140"><defs><filter id="a" width="200%" height="200%" x="-50%" y="-50%"><feMorphology in="SourceGraphic" operator="dilate" result="SvgjsFeMorphology1020Out"/><feOffset in="SvgjsFeMorphology1020Out" result="SvgjsFeOffset1021Out"/><feGaussianBlur in="SvgjsFeOffset1021Out" result="SvgjsFeGaussianBlur1022Out" stdDeviation="34.5"/><feComposite in="SvgjsFeGaussianBlur1022Out" in2="SourceAlpha" operator="out" result="SvgjsFeComposite1023Out"/></filter><filter id="b" width="200%" height="200%" x="-50%" y="-50%"><feMorphology in="SourceGraphic" operator="dilate" result="SvgjsFeMorphology1027Out"/><feOffset in="SvgjsFeMorphology1027Out" result="SvgjsFeOffset1028Out"/><feGaussianBlur in="SvgjsFeOffset1028Out" result="SvgjsFeGaussianBlur1029Out" stdDeviation="34.5"/><feComposite in="SvgjsFeGaussianBlur1029Out" in2="SourceAlpha" operator="out" result="SvgjsFeComposite1030Out"/></filter><filter id="c" width="200%" height="200%" x="-50%" y="-50%"><feMorphology in="SourceGraphic" operator="dilate" result="SvgjsFeMorphology1034Out"/><feOffset in="SvgjsFeMorphology1034Out" result="SvgjsFeOffset1035Out"/><feGaussianBlur in="SvgjsFeOffset1035Out" result="SvgjsFeGaussianBlur1036Out" stdDeviation="34.5"/><feComposite in="SvgjsFeGaussianBlur1036Out" in2="SourceAlpha" operator="out" result="SvgjsFeComposite1037Out"/></filter><filter id="d" width="200%" height="200%" x="-50%" y="-50%"><feMorphology in="SourceGraphic" operator="dilate" result="SvgjsFeMorphology1041Out"/><feOffset in="SvgjsFeMorphology1041Out" result="SvgjsFeOffset1042Out"/><feGaussianBlur in="SvgjsFeOffset1042Out" result="SvgjsFeGaussianBlur1043Out" stdDeviation="29"/><feComposite in="SvgjsFeGaussianBlur1043Out" in2="SourceAlpha" operator="out" result="SvgjsFeComposite1044Out"/></filter></defs><path fill="#42a5f5" d="M602 4348v-2h59v2z" filter="url(#a)" transform="translate(-533 -4277)"/><path fill="#42a5f5" d="M69 71v-2h59v2z"/><path fill="#ff7043" d="M661 4348v-2h59v2z" filter="url(#b)" transform="translate(-533 -4277)"/><path fill="#ff7043" d="M128 71v-2h59v2z"/><path fill="#ffca28" d="M720 4348v-2h59v2z" filter="url(#c)" transform="translate(-533 -4277)"/><path fill="#ffca28" d="M187 71v-2h59v2z"/><path fill="#1465c0" d="M779 4348v-2h59v2z" filter="url(#d)" transform="translate(-533 -4277)"/><path fill="#1465c0" d="M246 71v-2h59v2z"/></svg>